<svg width="46" height="5" viewBox="0 0 46 5" fill="none" xmlns="http://www.w3.org/2000/svg">
<path d="M1.60889 0.514954V4.78058H0.72998V0.514954H1.60889ZM3.30811 2.33722V3.02277H1.36865V2.33722H3.30811ZM3.51318 0.514954V1.20343H1.36865V0.514954H3.51318ZM7.52686 2.54816V2.75031C7.52686 3.07452 7.48291 3.36554 7.39502 3.62335C7.30713 3.88116 7.18311 4.10089 7.02295 4.28253C6.86279 4.46222 6.67139 4.59991 6.44873 4.69562C6.22803 4.79132 5.98291 4.83917 5.71338 4.83917C5.4458 4.83917 5.20068 4.79132 4.97803 4.69562C4.75732 4.59991 4.56592 4.46222 4.40381 4.28253C4.2417 4.10089 4.11572 3.88116 4.02588 3.62335C3.93799 3.36554 3.89404 3.07452 3.89404 2.75031V2.54816C3.89404 2.22198 3.93799 1.93097 4.02588 1.67511C4.11377 1.4173 4.23779 1.19757 4.39795 1.01593C4.56006 0.83429 4.75146 0.695618 4.97217 0.599915C5.19482 0.504211 5.43994 0.45636 5.70752 0.45636C5.97705 0.45636 6.22217 0.504211 6.44287 0.599915C6.66553 0.695618 6.85693 0.83429 7.01709 1.01593C7.1792 1.19757 7.3042 1.4173 7.39209 1.67511C7.48193 1.93097 7.52686 2.22198 7.52686 2.54816ZM6.63916 2.75031V2.5423C6.63916 2.31573 6.61865 2.11652 6.57764 1.94464C6.53662 1.77277 6.47607 1.62823 6.396 1.51105C6.31592 1.39386 6.21826 1.30597 6.10303 1.24738C5.98779 1.18683 5.85596 1.15656 5.70752 1.15656C5.55908 1.15656 5.42725 1.18683 5.31201 1.24738C5.19873 1.30597 5.10205 1.39386 5.02197 1.51105C4.94385 1.62823 4.88428 1.77277 4.84326 1.94464C4.80225 2.11652 4.78174 2.31573 4.78174 2.5423V2.75031C4.78174 2.97491 4.80225 3.17413 4.84326 3.34796C4.88428 3.51984 4.94482 3.66534 5.0249 3.78448C5.10498 3.90167 5.20264 3.99054 5.31787 4.05109C5.43311 4.11163 5.56494 4.14191 5.71338 4.14191C5.86182 4.14191 5.99365 4.11163 6.10889 4.05109C6.22412 3.99054 6.3208 3.90167 6.39893 3.78448C6.47705 3.66534 6.53662 3.51984 6.57764 3.34796C6.61865 3.17413 6.63916 2.97491 6.63916 2.75031ZM10.3804 3.66437C10.3804 3.5882 10.3687 3.51984 10.3452 3.45929C10.3237 3.39679 10.2827 3.34015 10.2222 3.28937C10.1616 3.23663 10.0767 3.18488 9.96729 3.13409C9.85791 3.08331 9.71631 3.03058 9.54248 2.97589C9.34912 2.91339 9.16553 2.84308 8.9917 2.76495C8.81982 2.68683 8.66748 2.59601 8.53467 2.49249C8.40381 2.38702 8.30029 2.26495 8.22412 2.12628C8.1499 1.98761 8.11279 1.82648 8.11279 1.64288C8.11279 1.46515 8.15186 1.30402 8.22998 1.15948C8.30811 1.013 8.41748 0.888 8.55811 0.784485C8.69873 0.679016 8.86475 0.597961 9.05615 0.541321C9.24951 0.48468 9.46143 0.45636 9.69189 0.45636C10.0063 0.45636 10.2808 0.513 10.5151 0.626282C10.7495 0.739563 10.9312 0.894836 11.0601 1.0921C11.1909 1.28937 11.2563 1.51495 11.2563 1.76886H10.3833C10.3833 1.64386 10.3569 1.53448 10.3042 1.44073C10.2534 1.34503 10.1753 1.26984 10.0698 1.21515C9.96631 1.16046 9.83545 1.13312 9.67725 1.13312C9.5249 1.13312 9.39795 1.15656 9.29639 1.20343C9.19482 1.24835 9.11865 1.30988 9.06787 1.388C9.01709 1.46417 8.9917 1.55011 8.9917 1.64581C8.9917 1.71808 9.00928 1.78351 9.04443 1.8421C9.08154 1.9007 9.13623 1.95538 9.2085 2.00616C9.28076 2.05695 9.36963 2.1048 9.4751 2.14972C9.58057 2.19464 9.70264 2.23859 9.84131 2.28156C10.0737 2.35187 10.2778 2.43097 10.4536 2.51886C10.6313 2.60675 10.7798 2.70538 10.8989 2.81476C11.0181 2.92413 11.1079 3.04816 11.1685 3.18683C11.229 3.3255 11.2593 3.48273 11.2593 3.65851C11.2593 3.84406 11.2231 4.01007 11.1509 4.15656C11.0786 4.30304 10.9741 4.42706 10.8374 4.52863C10.7007 4.63019 10.5376 4.70734 10.3481 4.76007C10.1587 4.81281 9.94678 4.83917 9.7124 4.83917C9.50146 4.83917 9.29346 4.81183 9.08838 4.75714C8.8833 4.7005 8.69678 4.61554 8.52881 4.50226C8.36279 4.38898 8.22998 4.24445 8.13037 4.06866C8.03076 3.89288 7.98096 3.68488 7.98096 3.44464H8.86279C8.86279 3.57745 8.8833 3.68976 8.92432 3.78156C8.96533 3.87335 9.02295 3.94757 9.09717 4.00421C9.17334 4.06085 9.26318 4.10187 9.3667 4.12726C9.47217 4.15265 9.5874 4.16534 9.7124 4.16534C9.86475 4.16534 9.98975 4.14386 10.0874 4.10089C10.187 4.05792 10.2603 3.99835 10.3071 3.92218C10.356 3.84601 10.3804 3.76007 10.3804 3.66437ZM13.7642 0.514954V4.78058H12.8882V0.514954H13.7642ZM15.0767 0.514954V1.20343H11.5962V0.514954H15.0767ZM18.4399 4.09503V4.78058H16.1694V4.09503H18.4399ZM16.4565 0.514954V4.78058H15.5776V0.514954H16.4565ZM18.144 2.25226V2.92023H16.1694V2.25226H18.144ZM18.437 0.514954V1.20343H16.1694V0.514954H18.437ZM18.9526 0.514954H20.5435C20.8696 0.514954 21.1499 0.563782 21.3843 0.661438C21.6206 0.759094 21.8022 0.903625 21.9292 1.09503C22.0562 1.28644 22.1196 1.52179 22.1196 1.80109C22.1196 2.0296 22.0806 2.22589 22.0024 2.38995C21.9263 2.55206 21.8179 2.68781 21.6772 2.79718C21.5386 2.9046 21.3755 2.99054 21.188 3.05499L20.9097 3.20148H19.5269L19.521 2.51593H20.5493C20.7036 2.51593 20.8315 2.48859 20.9331 2.4339C21.0347 2.37921 21.1108 2.30304 21.1616 2.20538C21.2144 2.10773 21.2407 1.99445 21.2407 1.86554C21.2407 1.72882 21.2153 1.61066 21.1646 1.51105C21.1138 1.41144 21.0366 1.33527 20.9331 1.28253C20.8296 1.2298 20.6997 1.20343 20.5435 1.20343H19.8315V4.78058H18.9526V0.514954ZM21.3374 4.78058L20.3647 2.87921L21.2935 2.87335L22.2778 4.73956V4.78058H21.3374ZM25.9517 3.26007H24.8647V2.57452H25.9517C26.1196 2.57452 26.2563 2.54718 26.3618 2.49249C26.4673 2.43585 26.5444 2.35773 26.5933 2.25812C26.6421 2.15851 26.6665 2.0462 26.6665 1.9212C26.6665 1.79425 26.6421 1.67609 26.5933 1.56671C26.5444 1.45734 26.4673 1.36945 26.3618 1.30304C26.2563 1.23663 26.1196 1.20343 25.9517 1.20343H25.1694V4.78058H24.2905V0.514954H25.9517C26.2856 0.514954 26.5718 0.5755 26.8101 0.696594C27.0503 0.815735 27.2339 0.980774 27.3608 1.19171C27.4878 1.40265 27.5513 1.64386 27.5513 1.91534C27.5513 2.19073 27.4878 2.42902 27.3608 2.63019C27.2339 2.83136 27.0503 2.98663 26.8101 3.09601C26.5718 3.20538 26.2856 3.26007 25.9517 3.26007ZM31.02 4.09503V4.78058H28.7495V4.09503H31.02ZM29.0366 0.514954V4.78058H28.1577V0.514954H29.0366ZM30.7241 2.25226V2.92023H28.7495V2.25226H30.7241ZM31.0171 0.514954V1.20343H28.7495V0.514954H31.0171ZM33.4985 0.514954V4.78058H32.6226V0.514954H33.4985ZM34.811 0.514954V1.20343H31.3306V0.514954H34.811ZM38.1743 4.09503V4.78058H35.9038V4.09503H38.1743ZM36.1909 0.514954V4.78058H35.312V0.514954H36.1909ZM37.8784 2.25226V2.92023H35.9038V2.25226H37.8784ZM38.1714 0.514954V1.20343H35.9038V0.514954H38.1714ZM38.687 0.514954H40.2778C40.604 0.514954 40.8843 0.563782 41.1187 0.661438C41.355 0.759094 41.5366 0.903625 41.6636 1.09503C41.7905 1.28644 41.854 1.52179 41.854 1.80109C41.854 2.0296 41.8149 2.22589 41.7368 2.38995C41.6606 2.55206 41.5522 2.68781 41.4116 2.79718C41.2729 2.9046 41.1099 2.99054 40.9224 3.05499L40.644 3.20148H39.2612L39.2554 2.51593H40.2837C40.438 2.51593 40.5659 2.48859 40.6675 2.4339C40.769 2.37921 40.8452 2.30304 40.896 2.20538C40.9487 2.10773 40.9751 1.99445 40.9751 1.86554C40.9751 1.72882 40.9497 1.61066 40.8989 1.51105C40.8481 1.41144 40.771 1.33527 40.6675 1.28253C40.564 1.2298 40.4341 1.20343 40.2778 1.20343H39.5659V4.78058H38.687V0.514954ZM41.0718 4.78058L40.0991 2.87921L41.0278 2.87335L42.0122 4.73956V4.78058H41.0718ZM44.7515 3.66437C44.7515 3.5882 44.7397 3.51984 44.7163 3.45929C44.6948 3.39679 44.6538 3.34015 44.5933 3.28937C44.5327 3.23663 44.4478 3.18488 44.3384 3.13409C44.229 3.08331 44.0874 3.03058 43.9136 2.97589C43.7202 2.91339 43.5366 2.84308 43.3628 2.76495C43.1909 2.68683 43.0386 2.59601 42.9058 2.49249C42.7749 2.38702 42.6714 2.26495 42.5952 2.12628C42.521 1.98761 42.4839 1.82648 42.4839 1.64288C42.4839 1.46515 42.5229 1.30402 42.6011 1.15948C42.6792 1.013 42.7886 0.888 42.9292 0.784485C43.0698 0.679016 43.2358 0.597961 43.4272 0.541321C43.6206 0.48468 43.8325 0.45636 44.063 0.45636C44.3774 0.45636 44.6519 0.513 44.8862 0.626282C45.1206 0.739563 45.3022 0.894836 45.4312 1.0921C45.562 1.28937 45.6274 1.51495 45.6274 1.76886H44.7544C44.7544 1.64386 44.728 1.53448 44.6753 1.44073C44.6245 1.34503 44.5464 1.26984 44.4409 1.21515C44.3374 1.16046 44.2065 1.13312 44.0483 1.13312C43.896 1.13312 43.769 1.15656 43.6675 1.20343C43.5659 1.24835 43.4897 1.30988 43.439 1.388C43.3882 1.46417 43.3628 1.55011 43.3628 1.64581C43.3628 1.71808 43.3804 1.78351 43.4155 1.8421C43.4526 1.9007 43.5073 1.95538 43.5796 2.00616C43.6519 2.05695 43.7407 2.1048 43.8462 2.14972C43.9517 2.19464 44.0737 2.23859 44.2124 2.28156C44.4448 2.35187 44.6489 2.43097 44.8247 2.51886C45.0024 2.60675 45.1509 2.70538 45.27 2.81476C45.3892 2.92413 45.479 3.04816 45.5396 3.18683C45.6001 3.3255 45.6304 3.48273 45.6304 3.65851C45.6304 3.84406 45.5942 4.01007 45.522 4.15656C45.4497 4.30304 45.3452 4.42706 45.2085 4.52863C45.0718 4.63019 44.9087 4.70734 44.7192 4.76007C44.5298 4.81281 44.3179 4.83917 44.0835 4.83917C43.8726 4.83917 43.6646 4.81183 43.4595 4.75714C43.2544 4.7005 43.0679 4.61554 42.8999 4.50226C42.7339 4.38898 42.6011 4.24445 42.5015 4.06866C42.4019 3.89288 42.3521 3.68488 42.3521 3.44464H43.2339C43.2339 3.57745 43.2544 3.68976 43.2954 3.78156C43.3364 3.87335 43.394 3.94757 43.4683 4.00421C43.5444 4.06085 43.6343 4.10187 43.7378 4.12726C43.8433 4.15265 43.9585 4.16534 44.0835 4.16534C44.2358 4.16534 44.3608 4.14386 44.4585 4.10089C44.5581 4.05792 44.6313 3.99835 44.6782 3.92218C44.7271 3.84601 44.7515 3.76007 44.7515 3.66437Z" fill="#8E8F99"/>
</svg>
