<svg width="18" height="20" viewBox="0 0 18 20" fill="none" xmlns="http://www.w3.org/2000/svg">
<path d="M0 12.1543C0.00600975 14.233 0.924346 16.225 2.55434 17.6951C4.18433 19.1652 6.39345 19.9939 8.69898 20C11.004 19.9939 13.2127 19.1656 14.8426 17.696C16.4725 16.2265 17.3912 14.2351 17.398 12.1568V0.693794C17.398 0.693794 0 2.44213 0 12.1543ZM8.69898 14.2081C8.24844 14.2081 7.80802 14.0877 7.43341 13.862C7.0588 13.6363 6.76683 13.3155 6.59441 12.9402C6.422 12.565 6.37689 12.152 6.46479 11.7536C6.55268 11.3552 6.76964 10.9892 7.08822 10.702C7.40679 10.4147 7.81269 10.2191 8.25457 10.1399C8.69645 10.0606 9.15448 10.1013 9.57072 10.2568C9.98696 10.4122 10.3427 10.6755 10.593 11.0132C10.8433 11.351 10.9769 11.7481 10.9769 12.1543C10.9781 12.4246 10.92 12.6925 10.806 12.9426C10.692 13.1927 10.5244 13.42 10.3128 13.6115C10.1011 13.8031 9.84963 13.9551 9.5727 14.0588C9.29576 14.1624 8.99885 14.2158 8.69898 14.2158V14.2081Z" fill="#8E8F99"/>
</svg>
